<svg width="71" height="67" viewBox="0 0 71 67" fill="none" xmlns="http://www.w3.org/2000/svg">
<g filter="url(#filter0_d_5_967)">
<g clip-path="url(#clip0_5_967)">
<path d="M46.8528 26.5781L47.3678 25.393C48.2734 23.2966 49.9319 21.6157 52.016 20.6821L53.6051 19.9723C53.7979 19.8836 53.9612 19.7415 54.0757 19.5628C54.1902 19.3841 54.2511 19.1764 54.2511 18.9641C54.2511 18.7519 54.1902 18.5442 54.0757 18.3655C53.9612 18.1868 53.7979 18.0447 53.6051 17.956L52.1039 17.2881C49.9674 16.3279 48.2806 14.5848 47.3909 12.418L46.8612 11.1387C46.7834 10.9406 46.6477 10.7705 46.4718 10.6505C46.2958 10.5306 46.0879 10.4665 45.875 10.4665C45.6621 10.4665 45.4542 10.5306 45.2782 10.6505C45.1023 10.7705 44.9666 10.9406 44.8888 11.1387L44.3591 12.4159C43.4703 14.5831 41.7843 16.3269 39.6482 17.2881L38.1449 17.9581C37.9527 18.047 37.7899 18.1891 37.6759 18.3676C37.5618 18.546 37.5012 18.7534 37.5012 18.9652C37.5012 19.177 37.5618 19.3843 37.6759 19.5628C37.7899 19.7413 37.9527 19.8833 38.1449 19.9723L39.7361 20.68C41.8198 21.6145 43.4775 23.2962 44.3822 25.393L44.8972 26.5781C45.2741 27.4449 46.4738 27.4449 46.8528 26.5781ZM45.875 31.4062C47.2778 31.4062 48.6241 31.1759 49.8845 30.753C50.0032 31.6533 50.0625 32.569 50.0625 33.5C50.0625 45.0638 40.6888 54.4375 29.125 54.4375C17.5612 54.4375 8.1875 45.0638 8.1875 33.5C8.1875 21.9362 17.5612 12.5625 29.125 12.5625C31.0219 12.5625 32.8582 12.8137 34.6043 13.2869C33.6596 15.2025 33.2188 17.3274 33.3237 19.4607C33.4286 21.594 34.0757 23.6654 35.2038 25.479C36.332 27.2927 37.9039 28.7888 39.7711 29.8259C41.6383 30.863 43.7391 31.4069 45.875 31.4062ZM31.2188 31.4062V20.9375L20.75 35.5937H27.0312V46.0625L37.5 31.4062H31.2188Z" fill="#0077B5"/>
</g>
</g>
<defs>
<filter id="filter0_d_5_967" x="0" y="0" width="75" height="75" filterUnits="userSpaceOnUse" color-interpolation-filters="sRGB">
<feFlood flood-opacity="0" result="BackgroundImageFix"/>
<feColorMatrix in="SourceAlpha" type="matrix" values="0 0 0 0 0 0 0 0 0 0 0 0 0 0 0 0 0 0 127 0" result="hardAlpha"/>
<feOffset dy="4"/>
<feGaussianBlur stdDeviation="2"/>
<feComposite in2="hardAlpha" operator="out"/>
<feColorMatrix type="matrix" values="0 0 0 0 0 0 0 0 0 0 0 0 0 0 0 0 0 0 0.25 0"/>
<feBlend mode="normal" in2="BackgroundImageFix" result="effect1_dropShadow_5_967"/>
<feBlend mode="normal" in="SourceGraphic" in2="effect1_dropShadow_5_967" result="shape"/>
</filter>
<clipPath id="clip0_5_967">
<rect width="50.25" height="50.25" fill="white" transform="translate(4 8.375)"/>
</clipPath>
</defs>
</svg>
