<svg width="35" height="35" viewBox="0 0 35 35" fill="none" xmlns="http://www.w3.org/2000/svg">
<path d="M25 23V14.5C25 14.3448 24.9639 14.1916 24.8944 14.0528C24.825 13.9139 24.7242 13.7931 24.6 13.7L17.6 8.45C17.4269 8.32018 17.2164 8.25 17 8.25C16.7836 8.25 16.5731 8.32018 16.4 8.45L9.4 13.7C9.2758 13.7931 9.175 13.9139 9.10557 14.0528C9.03614 14.1916 9 14.3448 9 14.5V23C9 23.2652 9.10536 23.5196 9.29289 23.7071C9.48043 23.8946 9.73478 24 10 24H14C14.2652 24 14.5196 23.8946 14.7071 23.7071C14.8946 23.5196 15 23.2652 15 23V20C15 19.7348 15.1054 19.4804 15.2929 19.2929C15.4804 19.1054 15.7348 19 16 19H18C18.2652 19 18.5196 19.1054 18.7071 19.2929C18.8946 19.4804 19 19.7348 19 20V23C19 23.2652 19.1054 23.5196 19.2929 23.7071C19.4804 23.8946 19.7348 24 20 24H24C24.2652 24 24.5196 23.8946 24.7071 23.7071C24.8946 23.5196 25 23.2652 25 23Z" fill="black" stroke="black" stroke-width="2" stroke-linecap="round" stroke-linejoin="round"/>
</svg>
