<?xml version="1.0" encoding="UTF-8"?>
<svg width="40" height="40" viewBox="0 0 40 40" fill="none" xmlns="http://www.w3.org/2000/svg">
  <path d="M20 5C14.48 5 10 9.48 10 15C10 18.38 11.49 21.37 13.86 23.32C15.66 24.87 16.5 27.1 16.5 29.42V31C16.5 31.55 16.95 32 17.5 32H22.5C23.05 32 23.5 31.55 23.5 31V29.42C23.5 27.1 24.34 24.87 26.14 23.32C28.51 21.37 30 18.38 30 15C30 9.48 25.52 5 20 5Z" fill="#FFE500" stroke="#000000" stroke-width="2"/>
  <path d="M17.5 33C17.5 34.1 18.4 35 19.5 35H20.5C21.6 35 22.5 34.1 22.5 33H17.5Z" fill="#FFE500" stroke="#000000" stroke-width="2"/>
</svg> 